<svg xmlns="http://www.w3.org/2000/svg" xmlns:xlink="http://www.w3.org/1999/xlink" version="1.1" width="1080" height="1080" xml:space="preserve" style=""><rect id="backgroundrect" width="100%" height="100%" x="0" y="0" fill="none" stroke="none"/>
<desc>Created with Fabric.js 5.2.4</desc>
<defs>
</defs>



<g class="currentLayer" style=""><title>Layer 1</title><g id="c518144c-b009-4f8e-b961-8d0385c03f3b">
</g><g id="svg_2" class="">
<g style="" vector-effect="non-scaling-stroke" stroke-width="0" id="svg_3">
		<g stroke-width="0" id="svg_4">
<path style="stroke: none; stroke-width: 1; stroke-dasharray: none; stroke-linecap: butt; stroke-dashoffset: 0; stroke-linejoin: miter; stroke-miterlimit: 4; fill: rgb(255,206,191); fill-rule: nonzero; opacity: 1;" vector-effect="non-scaling-stroke" d="M591.6370535768674,723.5607938218752 C592.29679749258,722.0685159172899 593.9618654703286,721.0317754783146 595.171395982466,719.7751204007689 C613.628517433925,700.4226322065581 632.2427207700757,681.2429340855133 650.4485112060224,661.6548230642638 C661.9971449912684,650.9888437876002 667.8907318056304,635.5341619933322 666.3766143139189,619.8867499243274 C665.8050438236999,616.5813542671485 665.0551926138685,613.3092762606234 664.1303433628052,610.0848403194684 C659.1665558064999,614.7972968602676 654.5483483965165,619.0856323123921 649.8987246095976,623.4053841414573 C642.6729579137073,630.1284888063276 635.478607594757,636.8830098481385 628.1900081449883,643.5275735706628 C619.3917955243301,652.4982956796557 605.9734886634087,655.1157400812974 594.4488193128782,650.1093045393102 C582.7996999488457,645.8297667643585 574.8267288179313,635.0137206565287 574.1852561874484,622.6199747179905 C574.0164212202544,621.840038456513 573.7906661334598,621.0735211850772 573.5098040832665,620.3265792014695 C567.9648135535961,625.0390357422664 562.6554458509647,629.3744957598003 557.3932027137405,633.8356212850895 L448.0170864018273,726.5139332541089 C447.2630933552998,727.15796898135 446.4462675548941,727.9590865932864 445.7393990737744,728.5874141320596 L591.5585126345218,728.5874141320596 L591.3385979959503,728.4460404358347 C590.5531885724847,727.8962538394092 590.9616014726873,725.0059471610532 591.6370535768674,723.5607938218752 z" stroke-linecap="round" stroke-width="0" id="svg_5"/>
</g>
		<g stroke-width="0" id="svg_6">
<path style="stroke: none; stroke-width: 1; stroke-dasharray: none; stroke-linecap: butt; stroke-dashoffset: 0; stroke-linejoin: miter; stroke-miterlimit: 4; fill: rgb(255,206,191); fill-rule: nonzero; opacity: 1;" vector-effect="non-scaling-stroke" d="M438.90632989897995,723.5607890281185 C440.2033805241283,721.8718538033181 441.76882305370395,720.4072363858172 443.54024549742985,719.2253290105828 L594.9043495878509,590.8108882738479 Q610.3926234186065,577.6631345250235 625.7395235531367,564.3740070799743 C627.003655705485,563.4924968919945 627.9943462288002,562.2731854786837 628.5984138545532,560.8553728628449 C631.0457183274261,550.1910112484911 631.3925189547249,539.1520805119144 629.6194461050588,528.355130919811 C628.0486272581275,529.4547041126639 627.2003850807835,529.925949766744 626.4778084111947,530.6956510017396 C614.0840477088977,541.7856320610858 601.7531197604762,552.9698622512444 589.2965263043016,563.9970105567104 C580.8304975987094,572.5177785216449 567.8349756872212,574.6054380474643 557.1261563191238,569.1650045631181 C546.2345878376232,564.0233187250326 539.5314928592848,552.8080477751646 540.1613127722524,540.7803079990476 C540.1613127722524,539.445111979155 540.1613127722524,538.1256241477304 540.1613127722524,535.690854934986 C537.8836254441985,537.3559229127341 536.2185574664509,538.4712042940571 534.6634468079878,539.7278593716023 Q443.7915765129392,612.4881883615178 352.9511225948306,685.1385600321478 C350.21789780116933,687.321998229384 346.9505945995486,692.1915366548753 343.36912762854195,687.4633719256085 C339.787660657538,682.7352071963417 345.2384020563927,680.7873918261444 347.9873350385235,678.5882454404382 Q444.82831695191635,600.8798370826862 541.763547996123,523.3128024211571 C552.28803427057,514.8775052131293 552.9791945632217,511.3431628075323 546.1304243905945,497.9440780431962 L542.0462953885708,501.77687602971173 C530.8463570099418,512.1914049848756 519.520753123558,522.4645602438136 508.49360481809185,533.0518792721384 C499.2621544593517,541.9562861783957 485.7389258553035,544.7708774187554 473.72139154699676,540.2890243168856 C461.70385723869094,535.8071712150149 453.3261174527613,524.8247711218241 452.17974915555965,512.0500312886504 C450.09056008913876,513.6208501355834 448.28411841516595,514.7675478938443 446.57192587201007,516.1027439137367 L350.75197620912627,590.3710589967075 C349.09934994669356,591.9919484112274 347.21466054163375,593.35781882276 345.15986111404527,594.4237716217938 C343.6090489694841,594.892466701162 341.9437293675244,594.8092007210623 340.4474045732468,594.1881487947539 L340.4474045732468,728.6659502806481 L438.71783163734744,728.6659502806481 C437.9771709722322,727.0287181828967 438.0469473012474,725.1389426053963 438.90632989897995,723.5607890281185 z" stroke-linecap="round" stroke-width="0" id="svg_7"/>
</g>
		<g stroke-width="0" id="svg_8">
<path style="stroke: none; stroke-width: 1; stroke-dasharray: none; stroke-linecap: butt; stroke-dashoffset: 0; stroke-linejoin: miter; stroke-miterlimit: 4; fill: rgb(255,97,150); fill-rule: nonzero; opacity: 1;" vector-effect="non-scaling-stroke" d="M704.3747348048346,296.6593503980407 C701.7043427650494,305.4088113754542 699.1124916676104,314.17398054133696 696.7719715856817,323.0176906495676 C692.2914555773918,335.9701571084372 698.4203389046497,350.20278616840324 710.9093412080745,355.8478045504587 C729.341503539092,365.5366036282626 750.1119823241818,369.8887207126181 770.8832047839583,368.41435532591845 L770.8832047839583,298.15162830262625 C770.6524418966058,296.61113379019116 770.7379580529048,295.0397744181987 771.1345357994676,293.53342089264424 C771.5744551888772,292.6813425859448 772.1294385033132,291.8937948349819 772.783895588746,291.1929008107156 L704.3119020509575,291.1929008107156 C705.364350678401,292.41813951132167 705.0030623436076,294.57016133161983 704.3747348048346,296.6593503980407 z" stroke-linecap="round" stroke-width="0" id="svg_9"/>
</g>
		<g stroke-width="0" id="svg_10">
<path style="stroke: none; stroke-width: 1; stroke-dasharray: none; stroke-linecap: butt; stroke-dashoffset: 0; stroke-linejoin: miter; stroke-miterlimit: 4; fill: rgb(255,135,175); fill-rule: nonzero; opacity: 1;" vector-effect="non-scaling-stroke" d="M566.849536966032,447.59932920524966 C566.5238780157829,455.441851858714 563.7804786131476,462.99168701476765 558.9954427313698,469.2137965390418 C541.8894085566901,491.2955997666977 522.2448100853092,511.28817019167855 500.4667324946638,528.7792472147248 C493.2618420881588,535.4485412912932 482.5807307865107,536.7170818259303 474.01414311231997,531.920884908589 C465.49725352731616,528.2821955659413 460.19363422178594,519.6756105007373 460.77214023268016,510.43208308255134 C461.2752278750263,504.89196213100286 463.57547450978404,499.6681406367202 467.32245482438566,495.55642860210105 C491.67540864173293,472.3352270304315 518.0607803487337,451.3436372264757 546.1618527519302,432.8336320440826 C549.936138395688,429.8740360267227 555.1799736419127,429.6589692011853 559.1839409930017,432.2995536361268 C564.4167373290052,435.54873021461026 567.3797976715057,441.4627072096823 566.849536966032,447.59932920524966 z" stroke-linecap="round" stroke-width="0" id="svg_11"/>
</g>
		<g stroke-width="0" id="svg_12">
<path style="stroke: none; stroke-width: 1; stroke-dasharray: none; stroke-linecap: butt; stroke-dashoffset: 0; stroke-linejoin: miter; stroke-miterlimit: 4; fill: rgb(255,135,175); fill-rule: nonzero; opacity: 1;" vector-effect="non-scaling-stroke" d="M548.1881988777352,542.8066727006674 C547.4489936525079,535.767596341117 550.0542060847451,528.7893487547701 555.225467311993,523.956846537478 C579.0702572694113,501.96391332342387 604.6531256733315,481.9336305258596 631.7243451576089,464.0615239039398 C632.5411709580139,463.54315368445214 633.2951640045414,463.02478346496264 634.190530747293,462.4907050570066 C639.0544311267215,458.97931520767065 645.6783756453431,459.20549867903947 650.2914239283505,463.04049165343235 C654.7420976750375,466.8105778203228 656.2743645176497,473.0092936836197 654.0928055379275,478.4188081649029 C650.6679404697966,489.82599436274086 644.3469803610442,500.1516723486109 635.7456414057556,508.3900317643754 C618.388093147152,525.6690390806323 600.3708009728355,542.3825516119973 582.337800610049,558.9703986356028 C576.7206069103968,564.746802282619 567.9053571616535,565.9876585522354 560.9118315378894,561.9863708217117 C553.6492326665757,558.2124912555726 548.8414167421208,550.9651539175995 548.1881988777352,542.8066727006674 z" stroke-linecap="round" stroke-width="0" id="svg_13"/>
</g>
		<g stroke-width="0" id="svg_14">
<path style="stroke: none; stroke-width: 1; stroke-dasharray: none; stroke-linecap: butt; stroke-dashoffset: 0; stroke-linejoin: miter; stroke-miterlimit: 4; fill: rgb(255,135,175); fill-rule: nonzero; opacity: 1;" vector-effect="non-scaling-stroke" d="M661.3814229642903,553.1897661038577 C656.9831301928807,557.902222644655 652.459171913714,562.3947645468816 648.2336692154656,567.2171784069653 C646.9630875909857,569.0810684460969 645.9090736276339,571.0836949764671 645.0920315215994,573.1862900253095 C647.4168434150602,573.8774503179598 650.1343600202533,575.6996001804007 652.0193426365722,575.0555644531576 C661.6170457913304,571.8353858169469 670.9791261190483,567.9711714534931 681.5193205819664,563.9027506399373 C679.225925065444,569.1807019656305 677.4980243338184,574.0502403911207 675.0632551210724,578.511365916409 C665.032771877012,595.3683591779265 652.4714782444426,610.5838949487982 637.819140260302,623.6252832003106 Q629.4623839946221,631.6835838850754 620.4615920016981,639.0350160887206 C613.992044560955,644.4038909335911 605.1327661494054,645.8732166782004 597.2764048139404,642.8803171218326 C589.4200434784743,639.8874175654641 583.7838959320079,632.8960247892287 582.5263168482777,624.5834826969408 C582.0176538958347,619.9981720101139 583.3637784176444,615.3998558915046 586.2648657039765,611.8127254713788 C607.6409038795025,588.6000041569023 632.070471011305,568.397919981069 658.8838209976689,551.7603209531478 C659.2098412948803,551.6338773166533 659.555279267481,551.5647897221338 659.9048532481745,551.5561145030474 z" stroke-linecap="round" stroke-width="0" id="svg_15"/>
</g>
		<g stroke-width="0" id="svg_16">
<path style="stroke: none; stroke-width: 1; stroke-dasharray: none; stroke-linecap: butt; stroke-dashoffset: 0; stroke-linejoin: miter; stroke-miterlimit: 4; fill: rgb(255,97,150); fill-rule: nonzero; opacity: 1;" vector-effect="non-scaling-stroke" d="M697.5730760147803,490.62406521258777 L724.4497864857965,371.24183284571586 L743.2996126489884,375.65583380559747 L733.5762439864748,405.2029363163979 C724.4969110512043,432.69226613771707 715.3076207966487,460.18159595903694 706.4482024999502,487.7023421572958 C704.7203017683228,492.79179522135564 702.4583226287416,493.7342865295159 697.5730760147803,490.62406521258777 z" stroke-linecap="round" stroke-width="0" id="svg_17"/>
</g>
		<g stroke-width="0" id="svg_18">
<path style="stroke: none; stroke-width: 1; stroke-dasharray: none; stroke-linecap: butt; stroke-dashoffset: 0; stroke-linejoin: miter; stroke-miterlimit: 4; fill: rgb(255,97,150); fill-rule: nonzero; opacity: 1;" vector-effect="non-scaling-stroke" d="M667.0677680151518,560.83964909466 C669.9109501281002,549.9852908623538 672.7384240525791,539.9477584304577 675.1260686999167,529.8002686792718 C677.4530399561543,519.9595125545045 681.8790332519084,510.7378001307843 688.1010323755793,502.76647632356276 C691.9181221736253,497.7555642018481 696.2064576257515,499.7505041374518 700.5890422086932,500.83436914183653 C704.6417548337793,501.8239850154039 705.6627870842851,504.7928326361057 705.835577157447,508.68846337649916 C706.4746255490145,519.4613224245761 703.1938419634657,530.1015508219195 696.5991623374844,538.6439787875024 C688.7481985378315,548.3769050997907 678.5998024664411,556.0043964023819 667.0677680151518,560.83964909466 z" stroke-linecap="round" stroke-width="0" id="svg_19"/>
</g>
		<g stroke-width="0" id="svg_20">
<path style="stroke: none; stroke-width: 1; stroke-dasharray: none; stroke-linecap: butt; stroke-dashoffset: 0; stroke-linejoin: miter; stroke-miterlimit: 4; fill: rgb(0,0,0); fill-rule: nonzero; opacity: 1;" vector-effect="non-scaling-stroke" d="M779.2399478668035,304.05790656787303 C779.4743657757544,300.55945853230196 779.384972593803,297.0468323237792 778.9729086628256,293.5648366703638 C778.6487063662491,292.5922229166122 778.0069502823021,291.7568335314727 777.1507588003826,291.1929002114957 C776.4534330063368,290.62589856280556 775.6373595198977,290.2232307241022 774.7631141530442,290.01478607629497 C774.260452122028,289.9205369454801 773.5535836409069,290.43890716496753 772.8781315367257,291.17719202302555 C772.2236744512936,291.8780860472939 771.6686911368561,292.66563379825607 771.2287717474464,293.51771210495417 C770.8321940008832,295.02406563050977 770.7466778445842,296.59542500250313 770.977440731938,298.13591951493777 L770.977440731938,368.3829383497614 C750.2062182721595,369.8573037364613 729.4357394870715,365.50518665210484 711.0035771560526,355.8163875743003 C698.5145748526302,350.1713691922448 692.3856915253716,335.938740132279 696.8662075336604,322.98627367341123 C699.206727615591,314.14256356517876 701.798578713029,305.3773943992951 704.468970752813,296.6279334218825 C705.0972982915875,294.53874435546163 705.4585866263826,292.38672253516347 704.468970752813,291.1614838345556 C703.9185052424359,290.5650256521169 703.1585586067406,290.2047546544529 702.3483653094547,290.1561597725197 C701.310705195272,290.1673520106449 700.305754754786,290.52074117653206 699.4894750080364,291.1614838345556 C698.3147922449807,291.86411947958277 697.3788192195991,292.9040895077844 696.8033747797829,294.1460396437292 C693.6617370859171,303.57095272532456 690.8970959153178,313.09011493773573 688.4937430795101,322.7035262809636 C687.5864017446911,326.4918601061313 687.3419311209514,330.40870466474803 687.7711664099202,334.2804611828551 C689.012362699443,348.5861046111763 698.4737690807322,360.85770821855544 711.9931930296209,365.69683812150606 C714.9620406503236,366.9377850105841 716.7056495704176,368.1630237111897 715.8731155815435,372.0743626400531 C714.7264178232838,377.03815019635795 713.6111364419628,382.0019377526662 712.4801468721705,386.98143349744123 Q700.9346283472166,437.59321674560874 689.5147753300155,488.25212455918313 C689.3001835082855,489.757888556692 688.6379753380859,491.1643968190165 687.6140845252269,492.28912899579745 C682.5961462504622,496.2776420731475 678.3799595383869,501.1814243425631 675.1889074459923,506.7406623875793 C671.1224976911803,514.0769968895638 668.3087469044997,522.0404425122458 666.8635675572477,530.3029450915681 C666.299452099877,535.6633170909445 662.9755915138846,540.3393575210569 658.0983983913648,542.6338730399875 C651.5480837996572,545.9483008070151 645.531847615905,550.2366362591422 638.2589563546071,554.6977617844288 C638.7438596978598,545.9516438271685 638.6494041641399,537.1830217802346 637.9762089621597,528.4493788521854 C636.8521080228347,522.993193637833 638.5257045106748,517.3359660733099 642.4373344874484,513.3695179216345 C652.0177531962286,503.87847936843013 658.846792968515,491.96837343806806 662.1982355818604,478.9057524199334 C664.2283926251318,472.7647404618383 663.21475751606,466.02411673674123 659.4682941539454,460.75177591257716 C655.7218307918342,455.47943508841195 649.6898112312115,452.30481631477096 643.222743910914,452.20183202208113 C638.0598221179348,452.1443038382972 632.990937460461,453.58476191103273 628.6298368229116,456.34879377798234 C613.5971004577661,466.49628352916807 598.9727769928256,477.2721008191247 584.4584108471668,488.17358361683546 C575.8660317544484,494.64535726619806 567.7763146927432,501.80829120821113 559.4509748040018,508.5942286269583 C559.0921422848069,508.2088066420599 558.7809790944455,507.78161649935964 558.524191684312,507.32186536094287 C558.3649712456845,506.1653571264867 558.0533359359306,505.03501888432925 557.5974085646217,503.96031302850906 C550.6386810727113,493.2159121154898 555.4610949327919,485.40894244623473 563.016733586539,477.38205813840955 C570.8882970921322,469.13075520201073 575.2377763226154,458.13874227626206 575.1434550848576,446.73538243475423 C575.387514830147,440.92525721901234 573.5679487099897,435.21615985118115 570.0068774553888,430.61878106522863 C568.1098297528076,428.28506846129335 565.7720041170721,426.3475554344195 563.1266909058238,424.9167086508619 C555.4316320099344,420.70510829738555 545.9295284556451,421.71983524253733 539.2973689978555,427.4614351828927 L534.914784414915,430.60307287675846 C524.9086683599553,437.7660068187711 514.7768867972418,444.74044249915073 505.14776726554396,452.40603847218176 C491.0889385854973,463.59026866234103 477.35998186330676,475.24574450658133 463.898064345095,487.18396774326857 C457.61478895736514,492.7289582729402 453.0279979243228,500.3003051151554 446.5090997095531,505.4525909330946 C412.51657986193163,532.2978850271716 378.16277167951716,558.6562252786987 343.9346290048559,585.1873556033916 C342.7576896845187,585.8894587472107 341.6754967781235,586.7393761029673 340.71445036864634,587.7163739469504 C340.6155155507997,587.8593493387696 340.5313092302258,588.0119732948115 340.46311935313474,588.1719114125628 C339.74054268354666,589.8526875787788 339.1279233332441,592.6330369378497 339.97616551058627,593.654069188357 C340.1840940171544,593.8756766008773 340.43540060485043,594.0521259071327 340.71445036864634,594.1724394078449 C342.2107751629228,594.7934913341535 343.8760947648825,594.8767573142493 345.42690690944323,594.4080622348849 C347.4817063370317,593.34210943585 349.3663957420897,591.9762390243179 351.01902200452287,590.3553496097991 L446.83897166740803,516.0870345268279 C448.55116421056437,514.7518385069347 450.3576058845372,513.542307994797 452.44679495095534,512.0343219017416 C453.5931632481572,524.8090617349135 461.9709030340889,535.7914618281038 473.98843734239335,540.2733149299759 C486.005971650701,544.7551680318447 499.5292002547476,541.9405767914868 508.76065061348777,533.0361698852296 C519.7563825420161,522.4488508569052 531.113402805338,512.1756955979668 542.3133411839669,501.7611666428031 L546.3974701859913,497.9283686562874 C553.2462403586176,511.32745342062367 552.5550800659678,514.8617958262205 542.0305937915207,523.2970930342476 Q445.01682180496573,600.9269604496549 348.14442351463526,678.5882442419995 C345.3954905325038,680.787390627703 339.9604573221188,682.7823305633087 343.5262161046553,687.4633707271673 C347.091974887192,692.1444108910259 350.3749862772802,687.3219970309447 353.1082110709442,685.1385588337068 Q443.99578955446054,612.5510199169564 534.7577025302216,539.7749827385692 C536.3285213771546,538.5183276610255 537.9778811664348,537.403046279703 540.2555684944859,535.7379783019542 C540.2555684944859,538.1727475146986 540.2555684944859,539.4922353461213 540.2555684944859,540.8274313660145 C539.6257485815202,552.8551711421326 546.3288435598593,564.0704420920008 557.2204120413589,569.2121279300864 C567.9292314094564,574.6525614144325 580.9247533209448,572.5649018886136 589.3907820265376,564.0441339236793 C601.8473754827119,553.0484019951509 614.1783034311316,541.832755428052 626.5720641334281,530.7427743687076 C627.3574735568943,530.0359058875886 628.2685484881163,529.5018274796307 629.713701827294,528.402254286779 C631.4867746769589,539.199203878883 631.1399740496634,550.2381346154593 628.6926695767893,560.9024962298136 C628.0886019510353,562.3203088456517 627.097911427719,563.5396202589629 625.8337792753705,564.4211304469427 Q610.4711709523706,577.694549703522 594.9986053100849,590.8580116408161 L443.69733397354275,719.2881605660211 C441.92591152981754,720.4700679412545 440.36046900024166,721.9346853587565 439.06341837509126,723.6236205835546 C438.2246115426401,725.1849186467473 438.15502413672016,727.0463817551224 438.8749201134608,728.6659490822069 L438.8749201134608,728.6659490822069 C440.3127431435855,729.7431557092868 442.1626942383632,730.1073648310689 443.9015404236429,729.6555649557768 C444.578928487741,729.4588426932592 445.2022525315235,729.1095662894145 445.72369028608614,728.6345327052697 C446.5090997095531,728.0062051664986 447.29450913301844,727.2050875545613 448.0013776141366,726.5610518273188 L557.3774939260518,633.8827398582985 C562.6397370632744,629.4216143330093 567.949104765908,625.0233215615986 573.4940952955776,620.3736977746794 C573.7749573457713,621.1206397582866 574.0007124325653,621.8871570297224 574.1695473997604,622.6670932912004 C574.8110200302426,635.0608392297408 582.7839911611577,645.8768853375675 594.4331105251895,650.1564231125199 C605.95777987572,655.1628586545094 619.376086736642,652.5454142528672 628.1742993573014,643.5746921438742 C635.4628988070685,636.9301284213495 642.6572491260192,630.1756073795375 649.8830158219084,623.4525027146656 C654.5954723627058,619.1327508856016 659.15084701881,614.7972908680695 664.1146345751163,610.1319588926781 C665.0394838261818,613.3563948338308 665.7893350360116,616.6284728403589 666.3609055262316,619.9338684975385 C667.8244920848363,635.5282579407583 661.935176948936,650.9136581330638 650.432802418334,661.5448597527809 C632.2270119823872,681.1486789624983 613.6128086462343,700.3283770835446 595.1556871947778,719.6651570892839 C593.9461566826396,720.9218121668312 592.2810887048915,721.9585526058063 591.6213447891791,723.4508305103925 C590.9616008734688,724.943108414978 590.5374797847978,727.8648314702734 591.3228892082634,728.4931590090464 L591.5428038468337,728.6345327052697 C593.1898668995561,729.4355354666034 595.0420946818635,729.715013623106 596.8521715494655,729.4356503172064 C597.3593574930717,729.3316154868537 597.811503588124,729.046930908487 598.1245348154812,728.6345327052697 C598.5643640926216,728.1789952396587 598.9884851812938,727.6135004547634 599.4126062699638,727.1893793660934 C614.3668016927618,711.7325219122756 629.3995380579072,696.3542054008076 644.2437761614199,680.787390627703 C650.235579014359,674.7167125898889 655.8686523389015,668.3021421281451 661.1143705774753,661.5762761297185 C675.0798456276818,646.1158254095662 678.8171209963484,623.9617471585927 670.6963655437637,604.7754666246387 C670.268795624185,602.6801416954677 670.6866072315238,600.500746013942 671.8587714904963,598.7121058754794 C672.8798037409999,596.9527887669137 674.0107933107922,595.2405962237597 675.1731992575224,593.5441118690699 C678.8926088288229,588.7149505804912 681.9904449896019,583.4375465587211 684.3939058890176,577.8359233997446 C689.0385490734539,564.0879751810853 696.1678192842344,551.3095969093363 705.4271702494434,540.1362710733645 C714.0600079243702,529.1912754339414 716.9755888162645,514.7941369897756 713.2812644841056,501.3527537425989 C712.6376246370464,498.83276842795726 712.6376246370464,496.1914348957441 713.2812644841056,493.67144958110043 C721.2296078495835,469.05671824966726 729.4135740421034,444.52052786058084 737.5189992922742,419.9686292830254 Q742.9697406911309,403.4750313902323 748.3576493361102,387.0756826282561 L751.7034934800763,376.91248468860476 C758.835011045149,376.91248468860476 765.5581157100191,376.7711109923803 772.2498039979537,376.91248468860476 C777.8105027160952,377.0695665732976 779.5069870707816,374.46200728738927 779.4441543169039,369.05839045394214 C779.1142823590483,347.3810903662727 779.2399478668035,325.71949846707207 779.2399478668035,304.05790656787303 zM500.62380898637707,528.7792508100424 C493.4189185798741,535.4485448866128 482.737807278226,536.7170854212493 474.1712196040337,531.9208885039068 C465.6543300190315,528.2821991612607 460.35071071350035,519.6756140960572 460.9292167243934,510.43208667787076 C461.43230436674094,504.89196572632204 463.7325510014973,499.6681442320398 467.47953131610075,495.5564321974207 C491.832485133448,472.33523062575114 518.2178568404486,451.34364082179536 546.3189292436457,432.83363563940225 C547.8526545440698,431.74936523641964 549.5974349574578,431.0000730343522 551.4397986846448,430.6344892536963 C552.6755574178483,430.40653764805484 553.9425888071451,430.40653764805484 555.1783475403461,430.6344892536963 C556.6582845518744,430.9227408705922 558.0705447405794,431.48764494607394 559.3410174847174,432.2995572314462 C564.5791579522065,435.5513757570907 567.5430045054743,441.47299540757194 567.0066134577476,447.61504098903856 C566.6809545074966,455.45756364250155 563.9375551048608,463.00739879855496 559.1525192230849,469.22950832282913 C542.0455352683914,491.3058020753001 522.4009732776997,511.2930630808587 500.62380898637707,528.7792508100424 zM582.3063890268706,559.0803463673708 C576.6891953272182,564.8567500143865 567.8739455784741,566.0976062840041 560.8804199547105,562.0963185534813 C553.6043422733528,558.313732005631 548.794312302676,551.0452422721658 548.1567872945582,542.8694958670271 C547.4175820693306,535.8304195074786 550.0227945015658,528.8521719211292 555.194055728816,524.0196697038382 C579.0388456862306,502.02673648978384 604.621714090154,481.9964536922173 631.6929335744301,464.12434707029956 C632.5097593748353,463.60597685081234 633.2637524213624,463.08760663132466 634.1591191641135,462.55352822336704 C639.0230195435411,459.0421383740306 645.6469640621629,459.2683218453974 650.2600123451739,463.10331481979233 C654.7106860918598,466.8734009866828 656.242952934472,473.0721168499813 654.0613939547479,478.48163133126263 C650.6365288866177,489.88881752910106 644.3155687778656,500.21449551497267 635.7142298225772,508.45285493073584 C618.3880979409123,525.7632786239335 600.3708057665942,542.4296665898851 582.3378054038083,559.0175136134931 zM675.1574910690531,578.5742082578045 C665.140855471667,595.4045195245133 652.601200839177,610.5983215887234 637.9762089621597,623.62529278783 Q629.6194526964773,631.6835934725934 620.618660703554,639.0350256762379 C614.1491132628128,644.4039005211089 605.2898348512615,645.8732262657179 597.4334735157956,642.8803267093497 C589.57711218033,639.8874271529817 583.940964633865,632.8960343767462 582.6833855501352,624.5834922844576 C582.1747225976919,619.9981815976316 583.5208471194996,615.3998654790225 586.4219344058329,611.8127350588966 C607.7979725813577,588.6000137444196 632.2275397131609,568.3979295685867 659.0408896995243,551.7603305406651 C659.3669099967356,551.6338869041708 659.7123479693378,551.5647993096493 660.0619219500309,551.5561240905638 L661.6327407969634,553.1269429374961 C657.2344480255535,557.839399478293 652.7104897463871,562.3319413805216 648.4849870481382,567.1543552406054 C647.2144054236587,569.0182452797371 646.1603914603068,571.0208718101069 645.3433493542741,573.123466858948 C647.6681612477332,573.814627151598 650.3856778529266,575.6367770140412 652.2706604692451,574.992741286798 C659.85771549993,572.4480147547677 667.3191050228595,569.494875322534 675.3145729537459,566.3532376286682 L681.7706384146395,563.8399274735768 C679.3515773903637,569.1807115531487 677.6236766587363,574.050249978638 675.1889074459923,578.5113755039272 zM696.7248338374372,538.7539504880658 C690.8654602793647,546.2134129242368 683.5214175727126,552.3753482469324 675.1574910690531,556.849783604727 Q671.2775685171293,559.0175136134931 667.193439515105,560.9024962298136 C669.9894970626453,550.2052198822021 672.7855546101844,540.2933529580589 675.1574910690531,530.2715287146277 L675.2517401998698,529.8631158144253 C677.5787114561085,520.0223596896583 682.004704751861,510.80064726593787 688.2267038755299,502.8293234587163 C692.0437936735784,497.81841133700163 696.3321291257043,499.81335127260695 700.7147137086458,500.8972162769885 C704.7674263337308,501.8868321505579 705.7884585842378,504.855679771259 705.9612486574003,508.75131051165135 C706.6053759334454,519.5149344178958 703.336083972729,530.1485017850061 696.7562502143753,538.6911177341883 zM733.4819948556592,405.23434849879914 C724.402661920388,432.72367832011855 715.2133716658341,460.21300814143774 706.3539533691335,487.7337543396957 C704.6888853913833,492.90174834610275 702.4269062518022,493.844239654263 697.5416596378427,490.7340183373369 L720.8369031378509,387.1699317590735 L724.4183701088589,371.273245028116 L743.2681962720487,375.6872459879951 C741.9801248175634,379.56716853992066 740.7391779284872,383.3842583379651 739.4825228509401,387.1699317590735 z" stroke-linecap="round" stroke-width="0" id="svg_21"/>
</g>
</g>
</g><path fill="" fill-opacity="1" stroke="#000000" stroke-opacity="1" stroke-width="9" stroke-dasharray="none" stroke-linejoin="miter" stroke-linecap="butt" stroke-dashoffset="" fill-rule="nonzero" opacity="1" marker-start="" marker-mid="" marker-end="" d="M270.61690740802396,442.87693300093883 L14.731621447082034,548.3304909932235 " id="svg_22" class=""/><path fill="" fill-opacity="1" stroke="#000000" stroke-opacity="1" stroke-width="9" stroke-dasharray="none" stroke-linejoin="miter" stroke-linecap="butt" stroke-dashoffset="" fill-rule="nonzero" opacity="1" marker-start="" marker-mid="" marker-end="" d="M263.4773906154094,679.2258511029108 L14.24160912180605,558.896063901994 " class="" id="svg_38"/><path fill="" fill-opacity="1" stroke="#000000" stroke-opacity="1" stroke-width="9" stroke-dasharray="none" stroke-linejoin="miter" stroke-linecap="butt" stroke-dashoffset="" fill-rule="nonzero" opacity="1" marker-start="" marker-mid="" marker-end="" d="M804.7793491068717,672.9944427659539 L1063.2431207890988,574.0287356127048 " class="" id="svg_1"/><path fill="" fill-opacity="1" stroke="#000000" stroke-opacity="1" stroke-width="9" stroke-dasharray="none" stroke-linejoin="miter" stroke-linecap="butt" stroke-dashoffset="" fill-rule="nonzero" opacity="1" marker-start="" marker-mid="" marker-end="" d="M804.7793491068717,672.9944427659539 L1063.2431207890988,574.0287356127048 " class="" id="svg_25"/><rect fill="" stroke="#000000" stroke-width="9" stroke-dashoffset="" fill-rule="nonzero" x="17.16351844773169" y="549.4896461976421" width="3.412029879823377" height="8.604249120777006" style="color: rgb(0, 0, 0);" class="" id="svg_23"/><path fill="" fill-opacity="1" stroke="#000000" stroke-opacity="1" stroke-width="9" stroke-dasharray="none" stroke-linejoin="miter" stroke-linecap="butt" stroke-dashoffset="" fill-rule="nonzero" opacity="1" marker-start="" marker-mid="" marker-end="" d="M818.0929766382164,426.22487623391794 L1057.5582041850819,564.9841543398268 " class="" id="svg_24"/><path fill="" fill-opacity="1" stroke="#000000" stroke-opacity="1" stroke-width="9" stroke-dasharray="none" stroke-linejoin="miter" stroke-linecap="butt" stroke-dashoffset="" fill-rule="nonzero" opacity="1" marker-start="" marker-mid="" marker-end="" d="M822.1670509065575,428.0767280548637 L1061.632278453423,566.8360061607725 " class="" id="svg_27"/><image id="svg_31" x="692.4347567426435" y="527.4563443122645" width="0" height="0" style="color: rgb(0, 0, 0);" xlink:href="logo/vector_paint_icon256.png" class=""/><rect fill="" stroke="#000000" stroke-width="9" stroke-dashoffset="" fill-rule="nonzero" id="svg_39" x="1057.4351043824204" y="567.2916008361491" width="2.6712890923957673" height="6.005627207159482" style="color: rgb(0, 0, 0);" class=""/><rect fill="" stroke="#000000" stroke-width="9" stroke-dashoffset="" fill-rule="nonzero" id="svg_41" x="-20.531164882411872" y="519.4454912602976" width="0" height="4.005426525983458" style="color: rgb(0, 0, 0);" class=""/></g></svg>